<?xml version="1.0" encoding="UTF-8"?>
<svg xmlns="http://www.w3.org/2000/svg" id="Layer_1" data-name="Layer 1" viewBox="0 0 24 24">
  <path d="m12,16.791l4.949-4.841c1.322-1.322,2.051-3.08,2.051-4.95s-.729-3.627-2.051-4.95c-1.321-1.322-3.079-2.05-4.949-2.05s-3.628.728-4.95,2.05c-2.729,2.729-2.729,7.17.004,9.903l4.946,4.837ZM7.757,2.757c1.134-1.133,2.641-1.757,4.243-1.757s3.109.624,4.242,1.757c1.134,1.133,1.758,2.64,1.758,4.243s-.624,3.109-1.754,4.239l-4.246,4.154-4.243-4.15c-2.339-2.339-2.339-6.146,0-8.485Zm4.243,7.223c1.648,0,2.99-1.341,2.99-2.99s-1.342-2.99-2.99-2.99-2.99,1.341-2.99,2.99,1.342,2.99,2.99,2.99Zm0-4.98c1.098,0,1.99.893,1.99,1.99s-.893,1.99-1.99,1.99-1.99-.893-1.99-1.99.893-1.99,1.99-1.99Zm11.943,11.846l-11.943,7.166L.057,16.846l5.664-3.398h0l.783.766-4.503,2.632,10,6,10-6-4.482-2.654.761-.744,5.665,3.399Z"/>
</svg>
