<svg xmlns="http://www.w3.org/2000/svg" version="1.1" xmlns:xlink="http://www.w3.org/1999/xlink" xmlns:svgjs="http://svgjs.dev/svgjs" width="1500" height="1500" viewBox="0 0 1500 1500"><g transform="matrix(1,0,0,1,0,0.00017611549708362872)"><svg viewBox="0 0 280 280" data-background-color="#ffffff" preserveAspectRatio="xMidYMid meet" height="1500" width="1500" xmlns="http://www.w3.org/2000/svg" xmlns:xlink="http://www.w3.org/1999/xlink"><g id="tight-bounds" transform="matrix(1,0,0,1,0,-0.000032874892781364906)"><svg viewBox="0 0 280 280" height="280" width="280"><g><svg viewBox="0 0 280 280" height="280" width="280"><g><svg viewBox="0 0 280 280" height="280" width="280"><g id="textblocktransform"><svg viewBox="0 0 280 280" height="280" width="280" id="textblock"><g><svg viewBox="0 0 280 280" height="280" width="280"><g transform="matrix(1,0,0,1,74.00336708925556,103.18088417333468)"><svg viewBox="0 0 131.99326582148888 73.63823165333066" height="73.63823165333066" width="131.99326582148888"><g id="icon-0"><svg xmlns="http://www.w3.org/2000/svg" xmlns:xlink="http://www.w3.org/1999/xlink" version="1.1" x="0" y="0" viewBox="14.266 30.063 71.467 39.870999999999995" enable-background="new 0 0 100 100" xml:space="preserve" height="73.63823165333066" width="131.99326582148888" class="icon-jxe-0" data-fill-palette-color="accent" id="jxe-0"><g fill="#e56d90" data-fill-palette-color="accent"><path d="M41.475 30.064C41.447 30.064 41.419 30.092 41.362 30.092 33.484 30.205 27.097 36.534 27.012 44.39 19.978 44.447 14.266 50.155 14.266 57.162 14.266 64.226 20.034 69.934 27.124 69.934H72.874C79.966 69.934 85.733 64.226 85.733 57.162 85.733 50.183 80.049 44.503 73.014 44.418 70.68 39.501 65.7 36.054 59.875 36.054 57.82 36.054 55.906 36.562 54.135 37.325 51.602 33.002 46.96 30.063 41.585 30.063zM41.587 31.647H41.671A13 13 0 0 1 53.123 38.626C53.32 38.993 53.826 39.163 54.193 38.993A12.74 12.74 0 0 1 59.877 37.665C65.279 37.665 69.922 40.915 71.891 45.549A0.74 0.74 0 0 0 72.623 46.001C72.848 46.001 72.932 45.973 72.875 45.973 79.121 45.973 84.158 51.003 84.158 57.163 84.158 63.351 79.121 68.352 72.875 68.352H27.125C20.879 68.352 15.842 63.351 15.842 57.163 15.842 51.003 20.879 45.973 27.125 45.973 27.294 45.973 27.491 46.03 27.772 46.03 28.194 46.058 28.616 45.663 28.616 45.211 28.588 44.985 28.588 44.759 28.588 44.533 28.588 37.411 34.384 31.647 41.587 31.647" fill="#e56d90" data-fill-palette-color="accent"></path></g></svg></g></svg></g><g id="text-0"><path d="M32.485 102.693l-1.463 3.677-20.846-1.238 0.15-3.512 17.691 1.274-12.348-10.161 1.433-3.603 15.91 1.211-13.745-11.191 2.259-2.543 15.984 13.458-1.463 3.677-16.147-1.262z" fill="#e83d95" data-fill-palette-color="primary"></path><path d="M63.482 56.402v0c-2.176 2.042-4.553 2.966-7.13 2.772-2.577-0.195-5.041-1.546-7.394-4.053v0c-1.422-1.516-2.408-3.14-2.956-4.873-0.548-1.733-0.631-3.428-0.248-5.084 0.383-1.656 1.254-3.123 2.614-4.399v0c1.457-1.368 2.963-2.187 4.518-2.459 1.555-0.271 3.076-0.1 4.565 0.513 1.489 0.613 2.835 1.561 4.038 2.843v0c0.638 0.68 1.229 1.368 1.773 2.064v0l-10.61 9.957c1.506 1.254 3.041 1.897 4.605 1.928 1.564 0.031 3.016-0.583 4.357-1.841v0c0.874-0.821 1.575-1.652 2.101-2.493 0.526-0.841 0.973-1.708 1.341-2.602v0l2.718 1.67c-0.408 0.967-0.953 1.963-1.636 2.988-0.683 1.025-1.569 2.048-2.656 3.069zM50.626 51.583v0l8.307-7.796c-1.386-1.477-2.822-2.267-4.308-2.371-1.486-0.104-2.88 0.455-4.182 1.677v0c-1.127 1.058-1.69 2.327-1.69 3.806 0 1.48 0.625 3.041 1.873 4.684z" fill="#e83d95" data-fill-palette-color="primary"></path><path d="M102.604 33.46v0c-1.634 0.575-3.263 0.682-4.888 0.321-1.624-0.361-3.1-1.162-4.426-2.405-1.327-1.242-2.353-2.894-3.079-4.955v0c-0.69-1.961-0.913-3.86-0.669-5.697 0.243-1.837 0.901-3.46 1.973-4.868 1.072-1.408 2.513-2.431 4.324-3.068v0c1.131-0.398 2.224-0.564 3.278-0.497 1.055 0.067 2.023 0.27 2.906 0.609v0l-0.558-1.584 3.092-1.088 5.228 14.857c0.336 0.955 0.788 1.496 1.354 1.621 0.567 0.125 1.127 0.091 1.68-0.104v0l0.212 2.892c-2.413 0.849-4.216 0.382-5.409-1.402v0c-0.295 1.008-0.822 2.02-1.58 3.035-0.759 1.016-1.905 1.793-3.438 2.333zM102.296 30.178v0c0.955-0.336 1.778-0.887 2.47-1.653 0.691-0.766 1.202-1.602 1.532-2.51v0l-3.701-10.52c-0.847-0.239-1.73-0.359-2.649-0.361-0.919-0.002-1.831 0.157-2.735 0.475v0c-1.207 0.425-2.16 1.106-2.861 2.045-0.701 0.939-1.123 2.048-1.266 3.327-0.143 1.279 0.042 2.648 0.554 4.106v0c0.495 1.408 1.199 2.566 2.112 3.473 0.913 0.908 1.942 1.506 3.09 1.795 1.147 0.289 2.298 0.23 3.454-0.177z" fill="#e83d95" data-fill-palette-color="primary"></path><path d="M150.267 27.367v0c-1.995-0.128-3.528-0.887-4.6-2.278-1.072-1.391-1.53-3.309-1.373-5.756v0l0.624-9.733-3.59-0.23 0.199-3.112 3.67 0.236 1.178-6.494 2.752 0.177-0.419 6.542 5.744 0.368-0.2 3.112-5.744-0.369-0.642 10.013c-0.099 1.542 0.158 2.64 0.77 3.294 0.612 0.653 1.371 1.009 2.275 1.067v0c0.665 0.043 1.303-0.023 1.915-0.198 0.612-0.174 1.18-0.392 1.704-0.651v0l0.813 2.936c-0.552 0.285-1.29 0.551-2.214 0.799-0.924 0.248-1.878 0.34-2.862 0.277z" fill="#e83d95" data-fill-palette-color="primary"></path><path d="M186.191 36.224l-3.269-1.503 12.357-26.875 3.269 1.503-5.06 11.004c1.134-0.681 2.372-1.109 3.714-1.284 1.342-0.175 2.715 0.06 4.119 0.706v0c2.131 0.98 3.428 2.353 3.891 4.121 0.463 1.768 0.211 3.704-0.758 5.811v0l-5.661 12.312-3.268-1.503 5.494-11.949c0.623-1.356 0.81-2.59 0.558-3.703-0.251-1.113-0.946-1.931-2.083-2.454v0c-1.114-0.512-2.354-0.606-3.721-0.28-1.367 0.325-2.646 0.859-3.838 1.601v0z" fill="#e83d95" data-fill-palette-color="primary"></path><path d="M227.673 67.974v0c-1.962-2.249-2.799-4.658-2.511-7.225 0.288-2.568 1.728-4.982 4.318-7.242v0c1.566-1.366 3.225-2.292 4.978-2.777 1.752-0.485 3.448-0.506 5.089-0.064 1.641 0.442 3.075 1.366 4.302 2.772v0c1.314 1.506 2.078 3.041 2.293 4.604 0.215 1.563-0.011 3.078-0.679 4.544-0.667 1.466-1.662 2.776-2.987 3.933v0c-0.703 0.613-1.412 1.179-2.127 1.696v0l-9.566-10.964c-1.308 1.46-2.006 2.97-2.093 4.531-0.088 1.562 0.473 3.035 1.681 4.421v0c0.788 0.904 1.593 1.634 2.415 2.191 0.821 0.557 1.672 1.035 2.551 1.434v0l-1.767 2.656c-0.952-0.443-1.928-1.024-2.927-1.743-0.999-0.72-1.989-1.642-2.97-2.767zM232.956 55.302v0l7.489 8.585c1.526-1.331 2.368-2.738 2.526-4.219 0.158-1.481-0.35-2.895-1.524-4.24v0c-1.016-1.165-2.264-1.774-3.743-1.828-1.479-0.054-3.062 0.514-4.748 1.702z" fill="#e83d95" data-fill-palette-color="primary"></path><path d="M248.696 103.887l-1.192-3.395 19.613-6.884 1.152 3.282-4.262 1.496c0.945 0.036 1.872 0.204 2.783 0.505 0.911 0.302 1.732 0.79 2.463 1.466 0.731 0.675 1.291 1.566 1.68 2.672v0c0.132 0.377 0.246 0.761 0.34 1.152 0.095 0.39 0.148 0.725 0.162 1.002v0l-3.866 0.213c0.033-0.548-0.065-1.149-0.294-1.803v0c-0.327-0.93-0.902-1.724-1.725-2.381-0.824-0.657-1.884-1.062-3.18-1.214-1.296-0.152-2.799 0.072-4.509 0.672v0z" fill="#e83d95" data-fill-palette-color="primary"></path><path d="M2.782 142.142c0-6.241 5.059-11.3 11.3-11.3 6.241 0 11.3 5.059 11.299 11.3 0 6.241-5.059 11.3-11.299 11.3-6.241 0-11.3-5.059-11.3-11.3z" fill="#e83d95" data-fill-palette-color="primary"></path><path d="M254.619 142.142c0-6.241 5.059-11.3 11.299-11.3 6.241 0 11.3 5.059 11.3 11.3 0 6.241-5.059 11.3-11.3 11.3-6.241 0-11.3-5.059-11.299-11.3z" fill="#e83d95" data-fill-palette-color="primary"></path></g><g id="text-1"><path d="M12.208 190.453l-1.575-3.879 16.812-14.299 2.458 2.787-14.438 11.966 16.857-1.278 1.541 3.797-13.022 10.722 18.677-1.521 0.132 3.592-22.037 1.429-1.575-3.88 13.239-10.853z" fill="#e56d90" data-fill-palette-color="secondary"></path><path d="M48.453 245.5v0c-2.318-2.145-3.468-4.585-3.451-7.319 0.012-2.73 1.251-5.428 3.717-8.093v0c1.493-1.614 3.134-2.773 4.921-3.479 1.788-0.706 3.569-0.919 5.343-0.638 1.779 0.275 3.392 1.083 4.839 2.422v0c1.55 1.434 2.524 2.962 2.921 4.582 0.407 1.62 0.34 3.237-0.201 4.852-0.531 1.614-1.428 3.103-2.691 4.467v0c-0.67 0.724-1.351 1.401-2.042 2.031v0l-11.296-10.452c-1.212 1.683-1.775 3.35-1.687 5.001 0.088 1.651 0.843 3.135 2.266 4.452v0c0.934 0.864 1.863 1.542 2.787 2.035 0.924 0.492 1.871 0.901 2.841 1.226v0l-1.561 2.981c-1.051-0.355-2.14-0.855-3.268-1.499-1.133-0.64-2.278-1.496-3.438-2.569zM52.581 231.579v0l8.838 8.179c1.452-1.57 2.179-3.139 2.18-4.709 0-1.579-0.692-3.009-2.076-4.29v0c-1.203-1.113-2.582-1.614-4.138-1.502-1.566 0.113-3.167 0.886-4.804 2.322z" fill="#e56d90" data-fill-palette-color="secondary"></path><path d="M95.697 272.917v0c-1.732-0.598-3.151-1.582-4.257-2.95-1.108-1.363-1.806-2.996-2.092-4.899-0.281-1.901-0.044-3.945 0.711-6.13v0c0.718-2.078 1.78-3.797 3.188-5.158 1.414-1.358 3.025-2.268 4.833-2.728 1.817-0.465 3.686-0.366 5.606 0.297v0c1.196 0.413 2.208 0.995 3.034 1.746 0.828 0.744 1.498 1.55 2.009 2.417v0l0.581-1.681 3.268 1.129-5.436 15.737c-0.35 1.014-0.33 1.761 0.061 2.241 0.387 0.472 0.873 0.809 1.459 1.011v0l-1.721 2.535c-2.557-0.883-3.744-2.456-3.561-4.719v0c-0.907 0.645-2.008 1.139-3.303 1.481-1.295 0.342-2.755 0.232-4.38-0.329zM97.596 269.989v0c1.014 0.35 2.059 0.436 3.136 0.259 1.076-0.178 2.048-0.533 2.916-1.065v0l3.85-11.146c-0.542-0.758-1.195-1.438-1.96-2.041-0.756-0.607-1.613-1.075-2.57-1.406v0c-1.278-0.442-2.519-0.503-3.72-0.185-1.194 0.314-2.271 0.953-3.232 1.918-0.961 0.965-1.709 2.222-2.244 3.771v0c-0.513 1.486-0.69 2.905-0.529 4.258 0.16 1.352 0.618 2.526 1.374 3.519 0.765 0.99 1.758 1.696 2.979 2.118z" fill="#e56d90" data-fill-palette-color="secondary"></path><path d="M152.422 279.979v0c-2.107 0.143-3.819-0.442-5.137-1.755-1.317-1.306-2.064-3.252-2.239-5.838v0l-0.698-10.29-3.799 0.258-0.223-3.29 3.879-0.263 0.339-6.964 2.901-0.197 0.469 6.909 6.072-0.411 0.223 3.29-6.072 0.412 0.718 10.588c0.11 1.629 0.533 2.742 1.268 3.34 0.735 0.598 1.578 0.865 2.528 0.8v0c0.705-0.048 1.365-0.203 1.982-0.465 0.616-0.269 1.183-0.578 1.7-0.927v0l1.253 2.97c-0.536 0.37-1.271 0.751-2.206 1.142-0.935 0.391-1.921 0.621-2.958 0.691z" fill="#e56d90" data-fill-palette-color="secondary"></path><path d="M195.301 268.268l-3.46 1.589-13.051-28.416 3.46-1.589 5.343 11.633c0.233-1.375 0.742-2.661 1.527-3.857 0.782-1.202 1.915-2.144 3.398-2.826v0c2.252-1.034 4.248-1.126 5.988-0.275 1.737 0.845 3.117 2.381 4.14 4.608v0l5.977 13.014-3.451 1.585-5.802-12.632c-0.659-1.435-1.522-2.435-2.588-3.001-1.066-0.566-2.202-0.572-3.406-0.019v0c-1.181 0.542-2.109 1.474-2.785 2.796-0.685 1.319-1.138 2.711-1.359 4.176v0z" fill="#e56d90" data-fill-palette-color="secondary"></path><path d="M245.094 231.563v0c-2.079 2.377-4.486 3.595-7.22 3.656-2.729 0.064-5.461-1.099-8.194-3.489v0c-1.655-1.447-2.86-3.055-3.615-4.822-0.756-1.767-1.018-3.541-0.788-5.323 0.225-1.786 0.987-3.421 2.285-4.905v0c1.39-1.59 2.89-2.606 4.499-3.049 1.608-0.452 3.227-0.431 4.856 0.065 1.628 0.486 3.142 1.341 4.541 2.565v0c0.742 0.649 1.438 1.311 2.087 1.985v0l-10.132 11.584c1.716 1.165 3.398 1.68 5.047 1.546 1.648-0.134 3.111-0.93 4.387-2.389v0c0.838-0.958 1.49-1.906 1.956-2.843 0.466-0.938 0.848-1.896 1.146-2.875v0l3.024 1.477c-0.326 1.06-0.795 2.164-1.408 3.309-0.608 1.15-1.431 2.319-2.471 3.508zM231.062 227.827v0l7.928-9.064c-1.61-1.408-3.199-2.09-4.768-2.047-1.579 0.044-2.989 0.776-4.23 2.195v0c-1.079 1.234-1.541 2.627-1.385 4.179 0.156 1.562 0.975 3.141 2.455 4.737z" fill="#e56d90" data-fill-palette-color="secondary"></path><path d="M269.432 188.307l-1.277 3.587-20.701-7.374 1.233-3.464 4.5 1.603c-0.756-0.658-1.406-1.413-1.951-2.265-0.551-0.854-0.903-1.803-1.054-2.848-0.154-1.038-0.023-2.14 0.393-3.307v0c0.143-0.402 0.307-0.792 0.491-1.173 0.181-0.388 0.359-0.7 0.535-0.934v0l3.317 2.391c-0.394 0.432-0.715 0.994-0.96 1.684v0c-0.349 0.979-0.403 2.014-0.162 3.104 0.243 1.084 0.847 2.119 1.811 3.106 0.964 0.987 2.346 1.801 4.148 2.443v0z" fill="#e56d90" data-fill-palette-color="secondary"></path></g></svg></g></svg></g></svg></g></svg></g><defs></defs></svg><rect width="280" height="280" fill="none" stroke="none" visibility="hidden"></rect></g></svg></g></svg>